<svg aria-hidden="true" style="position: absolute; width: 0; height: 0; overflow: hidden;" version="1.1" xmlns="http://www.w3.org/2000/svg" xmlns:xlink="http://www.w3.org/1999/xlink">
<defs>

<symbol id="icon-glass" viewBox="0 0 32 32">
<path fill="none"  stroke-linejoin="round" stroke-linecap="round" stroke-miterlimit="4" stroke-width="2" d="M15.333 28c6.996 0 12.667-5.671 12.667-12.667s-5.671-12.667-12.667-12.667c-6.996 0-12.667 5.671-12.667 12.667s5.671 12.667 12.667 12.667z"></path>
<path fill="none"  stroke-linejoin="round" stroke-linecap="round" stroke-miterlimit="4" stroke-width="2" d="M29.333 29.333l-2.667-2.667"></path>
</symbol>

<symbol id="icon-logo" viewBox="0 0 32 32">
<path  style="fill: var(--color2, #4bb7fd)" d="M7.405 12.61l14.019-8.796c2.653-1.665 6.096 0.249 6.096 3.39v17.592c0 3.14-3.443 5.054-6.096 3.39l-14.019-8.796c-2.496-1.566-2.496-5.213 0-6.78z"></path>
<path  style="fill: var(--color3, #7b6ef6)" d="M24.595 12.61l-14.019-8.796c-2.653-1.665-6.096 0.249-6.096 3.39v17.592c0 3.14 3.443 5.054 6.096 3.39l14.019-8.796c2.496-1.566 2.496-5.213 0-6.78z"></path>
</symbol>

<symbol id="icon-volume-medium" viewBox="0 0 32 32">
<path d="M22.485 25.985c-0.384 0-0.768-0.146-1.061-0.439-0.586-0.586-0.586-1.535 0-2.121 4.094-4.094 4.094-10.755 0-14.849-0.586-0.586-0.586-1.536 0-2.121s1.536-0.586 2.121 0c2.55 2.55 3.954 5.94 3.954 9.546s-1.404 6.996-3.954 9.546c-0.293 0.293-0.677 0.439-1.061 0.439v0zM17.157 23.157c-0.384 0-0.768-0.146-1.061-0.439-0.586-0.586-0.586-1.535 0-2.121 2.534-2.534 2.534-6.658 0-9.192-0.586-0.586-0.586-1.536 0-2.121s1.535-0.586 2.121 0c3.704 3.704 3.704 9.731 0 13.435-0.293 0.293-0.677 0.439-1.061 0.439z"></path>
<path d="M13 30c-0.26 0-0.516-0.102-0.707-0.293l-7.707-7.707h-3.586c-0.552 0-1-0.448-1-1v-10c0-0.552 0.448-1 1-1h3.586l7.707-7.707c0.286-0.286 0.716-0.372 1.090-0.217s0.617 0.519 0.617 0.924v26c0 0.404-0.244 0.769-0.617 0.924-0.124 0.051-0.254 0.076-0.383 0.076z"></path>
</symbol>

<symbol id="icon-volume-mute2" viewBox="0 0 32 32">
<path d="M30 19.348v2.652h-2.652l-3.348-3.348-3.348 3.348h-2.652v-2.652l3.348-3.348-3.348-3.348v-2.652h2.652l3.348 3.348 3.348-3.348h2.652v2.652l-3.348 3.348 3.348 3.348z"></path>
<path d="M13 30c-0.26 0-0.516-0.102-0.707-0.293l-7.707-7.707h-3.586c-0.552 0-1-0.448-1-1v-10c0-0.552 0.448-1 1-1h3.586l7.707-7.707c0.286-0.286 0.716-0.372 1.090-0.217s0.617 0.519 0.617 0.924v26c0 0.404-0.244 0.769-0.617 0.924-0.124 0.051-0.254 0.076-0.383 0.076z"></path>
</symbol>

<symbol id="icon-title" viewBox="0 0 284 16">
<path d="M274.403 10.7185C274.676 12.7379 275.965 14.0194 278.034 14.0194C279.751 14.0194 280.845 13.3592 281.508 12.5049L283.109 13.9029C282.133 15.068 280.493 16 278.034 16C274.169 16 272.061 13.4369 272.061 9.9806C272.061 6.40778 274.403 3.96118 277.838 3.96118C281.274 3.96118 283.499 6.33011 283.499 9.9806C283.499 10.2524 283.499 10.4466 283.421 10.7185H274.403ZM277.838 5.90293C276.004 5.90293 274.793 7.06798 274.442 8.93206H281.118C280.805 7.02914 279.595 5.90293 277.838 5.90293Z" fill="#F0F6FC"/>
<path d="M265.385 16C261.911 16 259.529 13.5534 259.529 9.9806C259.529 6.40778 261.911 3.96118 265.385 3.96118C267.923 3.96118 269.953 5.24274 270.617 7.45633L268.391 8.15536C267.884 6.79613 266.83 5.94176 265.385 5.94176C263.238 5.94176 261.911 7.534 261.911 9.9806C261.911 12.4272 263.238 14.0194 265.385 14.0194C266.791 14.0194 267.884 13.1651 268.391 11.8058L270.617 12.5049C269.953 14.7185 267.884 16 265.385 16Z" fill="#F0F6FC"/>
<path d="M254.064 2.52346V0.193359H256.641V2.52346H254.064ZM254.182 15.805V4.15452H256.524V15.805H254.182Z" fill="#F0F6FC"/>
<path d="M249.692 1.98058C248.833 1.98058 248.325 2.52427 248.325 3.37864V4.15534H251.683V6.13592H248.325V15.8058H245.983V6.13592H243.562V4.15534H245.983V3.33981C245.983 1.28155 247.427 0 249.77 0C250.98 0 252.034 0.349515 252.971 0.970874L251.878 2.71845C251.253 2.25243 250.551 1.98058 249.692 1.98058Z" fill="#F0F6FC"/>
<path d="M241.727 1.98058C240.868 1.98058 240.361 2.52427 240.361 3.37864V4.15534H243.718V6.13592H240.361V15.8058H238.018V6.13592H235.598V4.15534H238.018V3.33981C238.018 1.28155 239.463 0 241.805 0C243.015 0 244.069 0.349515 245.006 0.970874L243.913 2.71845C243.289 2.25243 242.586 1.98058 241.727 1.98058Z" fill="#F0F6FC"/>
<path d="M228.532 16C224.94 16 222.598 13.6311 222.598 9.9806C222.598 6.40778 225.018 3.96118 228.532 3.96118C232.123 3.96118 234.466 6.33011 234.466 9.9806C234.466 13.5534 232.045 16 228.532 16ZM228.532 14.0194C230.679 14.0194 232.084 12.4272 232.084 9.9806C232.084 7.534 230.679 5.94176 228.532 5.94176C226.385 5.94176 224.979 7.534 224.979 9.9806C224.979 12.4272 226.385 14.0194 228.532 14.0194Z" fill="#F0F6FC"/>
<path d="M219.044 15.8055L215.101 10.4074L213.422 11.9996V15.8055H211.08V0.271484H213.422V9.35886L218.693 4.15498H221.66L216.78 8.81517L221.894 15.8055H219.044Z" fill="#F0F6FC"/>
<path d="M203.352 16C199.878 16 197.496 13.5534 197.496 9.9806C197.496 6.40778 199.878 3.96118 203.352 3.96118C205.89 3.96118 207.92 5.24274 208.583 7.45633L206.358 8.15536C205.851 6.79613 204.797 5.94176 203.352 5.94176C201.205 5.94176 199.878 7.534 199.878 9.9806C199.878 12.4272 201.205 14.0194 203.352 14.0194C204.758 14.0194 205.851 13.1651 206.358 11.8058L208.583 12.5049C207.92 14.7185 205.851 16 203.352 16Z" fill="#F0F6FC"/>
<path d="M195.504 13.7864H195.933V15.8058C195.816 15.8447 195.504 15.8835 195.113 15.8835C193.669 15.8835 193.005 15.3787 192.849 14.0194C192.029 15.2233 190.467 16 188.75 16C186.446 16 184.924 14.602 184.924 12.5825C184.924 9.70875 187.696 9.0874 189.96 8.73788C191.717 8.50487 192.576 8.34953 192.576 7.45633C192.576 6.52429 191.6 5.90293 190.116 5.90293C188.789 5.90293 187.539 6.48545 186.603 7.45633L185.158 5.94176C186.524 4.66021 188.203 3.96118 190.233 3.96118C193.044 3.96118 194.762 5.39807 194.762 7.80584V13.0486C194.762 13.5534 194.996 13.7864 195.504 13.7864ZM189.14 14.0971C190.936 14.0971 192.498 12.8544 192.498 11.3787V9.86409C192.068 10.1359 191.365 10.2524 190.233 10.4466C188.75 10.6796 187.227 10.9126 187.227 12.4272C187.227 13.5146 187.93 14.0971 189.14 14.0971Z" fill="#F0F6FC"/>
<path d="M180.903 8.27213C182.269 8.89349 183.05 10.1362 183.05 11.7673C183.05 14.2527 181.254 15.8061 178.287 15.8061H171.494V1.04883H178.17C180.981 1.04883 182.777 2.56339 182.777 4.97116C182.777 6.44689 182.113 7.61193 180.903 8.27213ZM177.78 3.14592H173.876V7.22359H177.78C179.497 7.22359 180.356 6.56339 180.356 5.16533C180.356 3.80611 179.497 3.14592 177.78 3.14592ZM177.819 13.709C179.653 13.709 180.59 12.9712 180.59 11.4954C180.59 10.0197 179.653 9.28184 177.819 9.28184H173.876V13.709H177.819Z" fill="#F0F6FC"/>
<path d="M162.633 1.04883V4.07795H157.636V15.8061H154.278V4.07795H149.281V1.04883H162.633Z" fill="#F0F6FC"/>
<path d="M142.567 15.9991C140.068 15.9991 137.726 15.2224 136.164 13.8244L137.999 11.339C139.209 12.504 140.849 13.1642 142.645 13.1642C144.323 13.1642 145.299 12.6205 145.299 11.6885C145.299 10.7564 144.167 10.5234 142.41 10.0186C139.912 9.31953 136.75 8.42633 136.75 5.24187C136.75 2.52342 139.053 0.853516 142.684 0.853516C144.831 0.853516 146.666 1.43604 148.345 2.63992L146.549 5.12536C145.456 4.23216 144.011 3.7273 142.567 3.7273C141.044 3.7273 140.068 4.27099 140.068 5.08652C140.068 5.94089 141.2 6.36808 143.191 6.91177C145.651 7.57196 148.696 8.42633 148.696 11.4555C148.696 14.3292 146.432 15.9991 142.567 15.9991Z" fill="#F0F6FC"/>
<path d="M127.262 12.8935H134.914V15.8061H123.982V1.04883H134.718V3.96145H127.262V6.83524H132.962V9.63135H127.262V12.8935Z" fill="#F0F6FC"/>
<path d="M118.087 1.04883H121.64L116.33 15.8061H111.997L106.688 1.04883H110.279L114.183 12.6605L118.087 1.04883Z" fill="#F0F6FC"/>
<path d="M101.106 1.04883H104.346V15.8061H101.223L94.5469 6.40805V15.8061H91.3066V1.04883H94.4689L101.106 10.4469V1.04883Z" fill="#F0F6FC"/>
<path d="M83.9668 15.8061V1.04883H87.3242V15.8061H83.9668Z" fill="#F0F6FC"/>
<path d="M67.2969 12.8935H74.9487V15.8061H64.0176V1.04883H74.7535V3.96145H67.2969V6.83524H72.9967V9.63135H67.2969V12.8935Z" fill="#F0F6FC"/>
<path d="M53.5943 1.04883C58.3962 1.04883 61.09 3.96145 61.09 8.42747C61.09 12.777 58.2791 15.8061 53.5943 15.8061H47.8164V1.04883H53.5943ZM53.5162 13.01C56.21 13.01 57.6545 11.3013 57.6545 8.42747C57.6545 5.55368 56.21 3.84494 53.5162 3.84494H51.1738V13.01H53.5162Z" fill="#F0F6FC"/>
<path d="M42.0379 15.8061L40.9838 12.8935H34.5032L33.4491 15.8061H29.9355L35.7134 1.04883H39.8517L45.6296 15.8061H42.0379ZM35.5573 10.0197H39.9298L37.7435 3.96145L35.5573 10.0197Z" fill="#F0F6FC"/>
<path d="M25.4068 15.8061L22.2446 10.3692H19.5508V15.8061H16.2324V1.04883H22.7911C26.3047 1.04883 28.3738 2.75757 28.3738 5.67019C28.3738 7.72844 27.3588 9.20417 25.563 9.9032L29.1546 15.8061H25.4068ZM19.5508 3.84494V7.76727H22.5569C24.1575 7.76727 24.9774 7.06825 24.9774 5.78669C24.9774 4.50514 24.1575 3.84494 22.5569 3.84494H19.5508Z" fill="#F0F6FC"/>
<path d="M13.8516 1.04883V4.07795H8.85453V15.8061H5.4971V4.07795H0.5V1.04883H13.8516Z" fill="#F0F6FC"/>

</symbol>
</defs>
</svg>
